# xmcd
#
# Track frame offsets:
#	150
#	13117
#	29797
#	45702
#	64287
#	79140
#	90202
#	106662
#	117657
#	130910
#	147177
#	162927
#
# Disc length: 2343 seconds
#
# Revision: 1
# Processed by: cddbd v1.5PL3 Copyright (c) Steve Scherf et al.
# Submitted via: audiograbber 1.83.01
#
DISCID=a009250c
DTITLE=Josh WIlliams - Lonesome Highway
DYEAR=2004
DGENRE=
TTITLE0=Killer on the Loose
TTITLE1=Ol' Brown Suitcase
TTITLE2=You Love Me Today
TTITLE3=Down Another Lonesome Highway
TTITLE4=The Ledgend of the Johnson Boys
TTITLE5=Will You Meet Me Over There
TTITLE6=Golden Pond Getaway (inst)
TTITLE7=Don't Stop Now
TTITLE8=Sweet Forgiveness
TTITLE9=Mordecai
TTITLE10=The Cave
TTITLE11=Cold Virginia Rain
EXTD=
EXTT0=
EXTT1=
EXTT2=
EXTT3=
EXTT4=
EXTT5=
EXTT6=
EXTT7=
EXTT8=
EXTT9=
EXTT10=
EXTT11=
PLAYORDER=
